<svg width="154" height="168" viewBox="0 0 154 168" fill="none" xmlns="http://www.w3.org/2000/svg">
<path d="M2 58.7099L4 85M2 68.1224H42.4852M17.9942 27.8576C14.4954 37.7931 11.4965 43.5452 11.4965 58.7099H27.4907M17.9942 27.8576C28.1448 19.9799 66.3911 0.629791 103.463 5.89501M17.9942 27.8576C29.4256 27.3049 47.5487 24.7277 56.98 24.7201M17.9942 75.9662C13.4958 80.6725 6.99818 94.2684 4.99891 105.773C9.99708 112.048 19.9934 111 19.9934 111C19.9934 111 16.9934 131.61 22.5 139.5C28.0066 147.39 62.3672 149.961 88.5 134.5M58.9792 144.423V168M107.961 120.937V153.358M42.4852 68.1224H72.9741C91.9672 68.1224 89.4681 87.3659 83.9701 100.543L107.961 120.414C107.961 120.414 125 73.2114 127 34.1327C100.307 27.8783 82.9303 24.6992 56.98 24.7201M42.4852 68.1224L56.98 24.7201" stroke="black" stroke-width="4"/>
<path d="M104 6.13833C132.578 -8.78009 144.817 41.4684 140 59.752C123.601 26.4912 131.447 22.3101 104 6.13833Z" stroke="black" stroke-width="4"/>
<path d="M70 77C81.8762 79.753 79.7628 84.1246 76.2268 90" stroke="black" stroke-width="4"/>
<path d="M86 40C101.936 41.5519 110.8 43.343 126.5 48" stroke="black" stroke-width="4"/>
<path d="M93.5 54.5C105.789 55.7095 112.204 57.3256 123.5 60.5" stroke="black" stroke-width="4"/>
<path d="M101.5 68.5C109.775 69.1496 114.362 70.162 122.5 72.5" stroke="black" stroke-width="4"/>
</svg>
