<svg width="112" height="104" viewBox="0 0 112 104" fill="none" xmlns="http://www.w3.org/2000/svg">
<path d="M57.9434 36C54.0618 36.4084 49.583 42.3897 46.9331 44.8444C42.7549 48.7149 38.9344 51.9209 36.3559 57.086C29.5332 70.7525 38.5026 86.0523 50.7991 93.6936C63.5143 101.595 82.0673 104.717 96.4792 99.2579C102.504 96.976 107.479 90.8617 109.283 85.0249C109.869 83.1297 109.716 81.1797 109.716 79.2263C109.716 76.6059 110.527 72.7188 109.407 70.294C106.98 65.0407 104.235 59.803 99.974 55.7681C96.2904 52.28 91.3903 50.081 86.8916 47.7144C82.2637 45.2798 77.2832 44.8168 72.1701 43.9365C69.8901 43.544 67.2116 43.9072 64.9021 43.9072C62.145 43.9072 60.4521 45.4219 57.9434 46.0158" stroke="black" stroke-width="3" stroke-linecap="round"/>
<path d="M56.4479 60.1733C53.9954 60.1733 55.4822 63.2579 56.314 63.9234C57.6454 64.9885 59.5463 65.0962 61.2694 64.9948C62.3642 64.9304 63.6801 62.2648 63.6801 61.3787C63.6801 59.7415 62.7289 58.4923 61.2694 57.7626" stroke="black" stroke-width="3" stroke-linecap="round"/>
<path d="M87.0221 65C85.6019 65 84.094 66.5627 84.0087 68.0134C83.8756 70.275 85.2938 69.6939 87.0221 70.5581C90.5961 72.3451 91.8933 67.5102 90.6382 65" stroke="black" stroke-width="3" stroke-linecap="round"/>
<path d="M59 83L71.515 86.0887" stroke="black" stroke-width="3" stroke-linecap="round"/>
<path d="M28.6244 39.6888C26.6238 39.2442 26.515 38.1575 26.515 36.0392L27.7204 31.2177C30.0266 31.2177 30.9386 32.4385 32.8767 32.9923C35.402 33.7138 33.8115 36.1058 33.7472 37.7133C33.605 41.2679 31.5 40.3278 28.6244 39.6888Z" stroke="black" stroke-width="3" stroke-linecap="round"/>
<path d="M10.0593 26.8974C10.3997 25.0254 13.2902 20.27 15.45 20L19.6688 20.6027C21.6862 22.6202 20.2715 25.4936 20.2715 28.1697C20.2715 32.1868 17.9629 30.963 14.9812 30.8483C12.5957 30.7565 9.53485 29.782 10.0593 26.8974Z" stroke="black" stroke-width="3" stroke-linecap="round"/>
<path d="M5.048 13.5052C1.45428 13.316 2.03458 8.06108 2.03458 5.67029L5.048 2.05419C7.24588 2.05419 9.48274 1.93226 11.6775 2.05419C12.7939 2.11621 13.611 3.84204 14.3896 4.46493C15.6623 5.4831 14.5232 11.3576 13.2177 11.7306C11.6549 12.1771 11.1835 14.1079 9.26678 14.1079C7.72327 14.1079 6.54788 13.5841 5.048 13.5052Z" stroke="black" stroke-width="3" stroke-linecap="round"/>
</svg>
